<svg width="30" height="30" viewBox="0 0 30 30" fill="none" xmlns="http://www.w3.org/2000/svg">
<circle cx="15" cy="15" r="13.5" stroke="#FFD166" stroke-width="3"/>
<path d="M15.2702 22C14.9769 22 14.7302 21.9067 14.5302 21.72C14.3435 21.52 14.2502 21.2733 14.2502 20.98V12.08C14.2502 11.7733 14.3435 11.5267 14.5302 11.34C14.7302 11.1533 14.9769 11.06 15.2702 11.06C15.5769 11.06 15.8235 11.1533 16.0102 11.34C16.1969 11.5267 16.2902 11.7733 16.2902 12.08V20.98C16.2902 21.2733 16.1969 21.52 16.0102 21.72C15.8235 21.9067 15.5769 22 15.2702 22ZM15.2702 9.28C14.9102 9.28 14.5969 9.15333 14.3302 8.9C14.0769 8.63333 13.9502 8.32 13.9502 7.96C13.9502 7.6 14.0769 7.29333 14.3302 7.04C14.5969 6.77333 14.9102 6.64 15.2702 6.64C15.6302 6.64 15.9369 6.77333 16.1902 7.04C16.4569 7.29333 16.5902 7.6 16.5902 7.96C16.5902 8.32 16.4569 8.63333 16.1902 8.9C15.9369 9.15333 15.6302 9.28 15.2702 9.28Z" fill="#FFD166"/>
<path d="M14.5302 21.72L14.1647 22.0612L14.1764 22.0738L14.1891 22.0855L14.5302 21.72ZM14.5302 11.34L14.1891 10.9745L14.1827 10.9804L14.1767 10.9864L14.5302 11.34ZM16.0102 21.72L16.3638 22.0736L16.3699 22.0675L16.3757 22.0612L16.0102 21.72ZM14.3302 8.9L13.9677 9.24437L13.9765 9.25367L13.9858 9.2625L14.3302 8.9ZM14.3302 7.04L13.9767 6.68645L13.9767 6.68645L14.3302 7.04ZM16.1902 7.04L15.8277 7.38437L15.8365 7.39367L15.8458 7.4025L16.1902 7.04ZM16.1902 8.9L16.5438 9.25355L16.1902 8.9ZM15.2702 21.5C15.0935 21.5 14.9717 21.4481 14.8714 21.3545L14.1891 22.0855C14.4887 22.3652 14.8602 22.5 15.2702 22.5V21.5ZM14.8957 21.3788C14.8021 21.2785 14.7502 21.1567 14.7502 20.98H13.7502C13.7502 21.39 13.885 21.7615 14.1647 22.0612L14.8957 21.3788ZM14.7502 20.98V12.08H13.7502V20.98H14.7502ZM14.7502 12.08C14.7502 11.8828 14.8061 11.7712 14.8838 11.6936L14.1767 10.9864C13.881 11.2821 13.7502 11.6639 13.7502 12.08H14.7502ZM14.8714 11.7055C14.9717 11.6119 15.0935 11.56 15.2702 11.56V10.56C14.8602 10.56 14.4887 10.6948 14.1891 10.9745L14.8714 11.7055ZM15.2702 11.56C15.4674 11.56 15.579 11.6159 15.6567 11.6936L16.3638 10.9864C16.0681 10.6908 15.6863 10.56 15.2702 10.56V11.56ZM15.6567 11.6936C15.7343 11.7712 15.7902 11.8828 15.7902 12.08H16.7902C16.7902 11.6639 16.6594 11.2821 16.3638 10.9864L15.6567 11.6936ZM15.7902 12.08V20.98H16.7902V12.08H15.7902ZM15.7902 20.98C15.7902 21.1567 15.7383 21.2785 15.6447 21.3788L16.3757 22.0612C16.6554 21.7615 16.7902 21.39 16.7902 20.98H15.7902ZM15.6567 21.3664C15.579 21.4441 15.4674 21.5 15.2702 21.5V22.5C15.6863 22.5 16.0681 22.3692 16.3638 22.0736L15.6567 21.3664ZM15.2702 8.78C15.0414 8.78 14.8506 8.70469 14.6746 8.5375L13.9858 9.2625C14.3432 9.60198 14.779 9.78 15.2702 9.78V8.78ZM14.6927 8.55562C14.5255 8.37964 14.4502 8.18877 14.4502 7.96H13.4502C13.4502 8.45123 13.6282 8.88703 13.9677 9.24437L14.6927 8.55562ZM14.4502 7.96C14.4502 7.73189 14.5247 7.55261 14.6838 7.39355L13.9767 6.68645C13.629 7.03406 13.4502 7.46811 13.4502 7.96H14.4502ZM14.6838 7.39355C14.8616 7.21569 15.0497 7.14 15.2702 7.14V6.14C14.7707 6.14 14.3321 6.33098 13.9767 6.68645L14.6838 7.39355ZM15.2702 7.14C15.4898 7.14 15.6665 7.21464 15.8277 7.38437L16.5527 6.69562C16.2073 6.33203 15.7706 6.14 15.2702 6.14V7.14ZM15.8458 7.4025C16.0156 7.56375 16.0902 7.74038 16.0902 7.96H17.0902C17.0902 7.45962 16.8982 7.02291 16.5346 6.6775L15.8458 7.4025ZM16.0902 7.96C16.0902 8.18053 16.0145 8.36858 15.8367 8.54645L16.5438 9.25355C16.8992 8.89808 17.0902 8.45947 17.0902 7.96H16.0902ZM15.8367 8.54645C15.6776 8.7055 15.4983 8.78 15.2702 8.78V9.78C15.7621 9.78 16.1962 9.60116 16.5438 9.25355L15.8367 8.54645Z" fill="#FFD166"/>
</svg>
