<svg width="153" height="209" viewBox="0 0 153 209" fill="none" xmlns="http://www.w3.org/2000/svg">
<path d="M103.119 87.6941H101.619V87.7305L101.621 87.7668L103.119 87.6941ZM103.119 88.2702L101.621 88.1975L101.619 88.2338V88.2702H103.119ZM103.119 117.918H101.619V119.502L103.201 119.416L103.119 117.918ZM94.6074 185.756L95.0578 184.325L94.0503 184.008L93.4122 184.849L94.6074 185.756ZM80.5796 204.254L79.3844 203.347L79.3795 203.354L79.3746 203.36L80.5796 204.254ZM75.8317 206.648L75.8338 208.148H75.8338L75.8317 206.648ZM71.077 204.267L72.2794 203.37L72.2747 203.364L71.077 204.267ZM57.0868 185.711L58.2845 184.808L57.6439 183.959L56.6302 184.282L57.0868 185.711ZM53.3704 118.545L53.0755 120.016L54.8704 120.376V118.545H53.3704ZM53.3961 94.9364L54.8878 95.0948L54.9034 94.9477L54.89 94.8004L53.3961 94.9364ZM55.8071 89.6081L56.6903 90.8205V90.8205L55.8071 89.6081ZM64.0792 90.908L62.8667 91.7911V91.7912L64.0792 90.908ZM75.8177 107.024L74.6053 107.907L75.8108 109.562L77.0254 107.913L75.8177 107.024ZM91.6912 85.479L92.8989 86.3687L93.0001 86.2314L93.0678 86.0748L91.6912 85.479ZM65.196 123.32L63.7014 123.193L63.6249 124.095L64.3878 124.583L65.196 123.32ZM75.7758 133.891L74.5129 134.7L75.7759 136.671L77.0389 134.7L75.7758 133.891ZM91.2773 120.703L91.8725 122.079L92.7773 121.688V120.703H91.2773ZM91.2773 106.005H92.7773V101.44L90.0697 105.115L91.2773 106.005ZM80.5573 120.555L81.765 121.445L81.765 121.445L80.5573 120.555ZM75.7743 122.964L75.7702 124.464L75.7743 122.964ZM71.0044 120.529L69.792 121.412L71.0044 120.529ZM65.2125 112.577L66.425 111.694L63.7125 107.97V112.577H65.2125ZM75.8092 190.805L74.6137 191.711L75.8026 193.28L76.9999 191.717L75.8092 190.805ZM67.7171 180.125L66.8003 178.938L65.6238 179.847L66.5215 181.031L67.7171 180.125ZM83.9343 180.201L85.125 181.113L86.0371 179.923L84.8468 179.011L83.9343 180.201ZM75.7763 171.328L77.0393 170.519L75.7763 168.547L74.5133 170.519L75.7763 171.328ZM104.619 87.4731C104.619 83.5298 101.169 80.5552 97.1983 80.5552V83.5552C99.7681 83.5552 101.619 85.4319 101.619 87.4731H104.619ZM104.619 87.6941V87.4731H101.619V87.6941H104.619ZM104.618 88.343C104.629 88.1022 104.629 87.8614 104.618 87.6214L101.621 87.7668C101.628 87.9101 101.628 88.0539 101.621 88.1975L104.618 88.343ZM104.619 117.918V88.2702H101.619V117.918H104.619ZM103.201 119.416C103.814 119.382 104.431 119.365 105.052 119.365V116.365C104.376 116.365 103.704 116.384 103.037 116.42L103.201 119.416ZM105.052 119.365C123.412 119.365 138.295 134.249 138.295 152.609H141.295C141.295 132.592 125.068 116.365 105.052 116.365V119.365ZM138.295 152.609C138.295 170.969 123.412 185.853 105.052 185.853V188.853C125.068 188.853 141.295 172.626 141.295 152.609H138.295ZM105.052 185.853C101.567 185.853 98.2102 185.317 95.0578 184.325L94.157 187.186C97.5975 188.269 101.258 188.853 105.052 188.853V185.853ZM81.7748 205.16L95.8026 186.662L93.4122 184.849L79.3844 203.347L81.7748 205.16ZM75.8338 208.148C78.1803 208.145 80.3869 207.032 81.7845 205.147L79.3746 203.36C78.5421 204.483 77.2274 205.146 75.8295 205.148L75.8338 208.148ZM69.8746 205.164C71.2775 207.045 73.4873 208.152 75.8338 208.148L75.8296 205.148C74.4316 205.15 73.1152 204.491 72.2794 203.37L69.8746 205.164ZM55.8891 186.614L69.8793 205.17L72.2747 203.364L58.2845 184.808L55.8891 186.614ZM56.6302 184.282C53.4384 185.302 50.0353 185.854 46.5007 185.854V188.854C50.3489 188.854 54.0599 188.253 57.5434 187.14L56.6302 184.282ZM46.5007 185.854C28.1406 185.854 13.2568 170.97 13.2568 152.61H10.2568C10.2568 172.627 26.4837 188.854 46.5007 188.854V185.854ZM13.2568 152.61C13.2568 134.25 28.1406 119.366 46.5007 119.366V116.366C26.4837 116.366 10.2568 132.593 10.2568 152.61H13.2568ZM46.5007 119.366C48.7529 119.366 50.9513 119.59 53.0755 120.016L53.6654 117.074C51.3481 116.61 48.9521 116.366 46.5007 116.366V119.366ZM51.8704 95.4228V118.545H54.8704V95.4228H51.8704ZM51.9045 94.7779C51.882 94.9906 51.8704 95.2057 51.8704 95.4228H54.8704C54.8704 95.3118 54.8763 95.2024 54.8878 95.0948L51.9045 94.7779ZM54.924 88.3956C52.733 89.9915 51.6739 92.562 51.9023 95.0723L54.89 94.8004C54.7532 93.2977 55.3873 91.7696 56.6903 90.8205L54.924 88.3956ZM65.2917 90.0249C62.8786 86.712 58.2368 85.9826 54.924 88.3956L56.6903 90.8205C58.6639 89.383 61.4292 89.8175 62.8667 91.7911L65.2917 90.0249ZM77.0302 106.141L65.2917 90.0249L62.8667 91.7912L74.6053 107.907L77.0302 106.141ZM90.4836 84.5892L74.6101 106.134L77.0254 107.913L92.8989 86.3687L90.4836 84.5892ZM97.1983 80.5552C94.1399 80.5552 91.4358 82.2928 90.3147 84.8831L93.0678 86.0748C93.6827 84.6542 95.2557 83.5552 97.1983 83.5552V80.5552ZM64.3878 124.583C68.4505 127.182 71.9112 130.64 74.5129 134.7L77.0388 133.082C74.2032 128.656 70.4322 124.888 66.0043 122.056L64.3878 124.583ZM77.0389 134.7C80.5969 129.147 85.7607 124.721 91.8725 122.079L90.6821 119.326C84.0167 122.207 78.39 127.03 74.5128 133.082L77.0389 134.7ZM89.7773 106.005V120.703H92.7773V106.005H89.7773ZM81.765 121.445L92.4849 106.895L90.0697 105.115L79.3497 119.665L81.765 121.445ZM75.7702 124.464C78.1354 124.47 80.362 123.349 81.765 121.445L79.3497 119.665C78.5139 120.8 77.1874 121.468 75.7784 121.464L75.7702 124.464ZM69.792 121.412C71.1845 123.324 73.405 124.458 75.7702 124.464L75.7784 121.464C74.3693 121.46 73.0465 120.785 72.2169 119.646L69.792 121.412ZM64 113.461L69.792 121.412L72.2169 119.646L66.425 111.694L64 113.461ZM66.7125 122.93V112.577H63.7125V122.93H66.7125ZM66.6907 123.446C66.7052 123.276 66.7125 123.103 66.7125 122.93H63.7125C63.7125 123.019 63.7087 123.106 63.7014 123.193L66.6907 123.446ZM77.0048 189.899L68.9126 179.22L66.5215 181.031L74.6137 191.711L77.0048 189.899ZM82.7437 179.289L74.6186 189.893L76.9999 191.717L85.125 181.113L82.7437 179.289ZM84.8468 179.011C81.7779 176.658 79.1309 173.783 77.0393 170.519L74.5133 172.137C76.7932 175.695 79.6777 178.828 83.0218 181.392L84.8468 179.011ZM74.5133 170.519C72.4432 173.75 69.8291 176.599 66.8003 178.938L68.6339 181.313C71.9343 178.764 74.7829 175.659 77.0393 172.137L74.5133 170.519ZM126.453 152.609C126.453 164.429 116.871 174.011 105.052 174.011V177.011C118.528 177.011 129.453 166.086 129.453 152.609H126.453ZM105.052 131.207C116.871 131.207 126.453 140.789 126.453 152.609H129.453C129.453 139.132 118.528 128.207 105.052 128.207V131.207ZM83.6498 152.609C83.6498 140.789 93.2317 131.207 105.052 131.207V128.207C91.5748 128.207 80.6498 139.132 80.6498 152.609H83.6498ZM105.052 174.011C93.2317 174.011 83.6498 164.429 83.6498 152.609H80.6498C80.6498 166.086 91.5748 177.011 105.052 177.011V174.011ZM67.9024 152.61C67.9024 164.43 58.3205 174.011 46.5007 174.011V177.011C59.9774 177.011 70.9024 166.086 70.9024 152.61H67.9024ZM46.5007 131.208C58.3205 131.208 67.9024 140.79 67.9024 152.61H70.9024C70.9024 139.133 59.9774 128.208 46.5007 128.208V131.208ZM25.0989 152.61C25.0989 140.79 34.6808 131.208 46.5007 131.208V128.208C33.0239 128.208 22.0989 139.133 22.0989 152.61H25.0989ZM46.5007 174.011C34.6808 174.011 25.0989 164.43 25.0989 152.61H22.0989C22.0989 166.086 33.0239 177.011 46.5007 177.011V174.011Z" fill="#073B4C"/>
<path fill-rule="evenodd" clip-rule="evenodd" d="M49.7593 168.362C44.8718 166.91 42.002 161.82 43.3297 156.865C44.6796 151.827 49.8582 148.837 54.8964 150.187C58.0977 151.045 60.4721 153.448 61.4315 156.379C62.6724 148.741 58.1929 141.167 50.4205 139.084C42.2277 136.889 34.0657 141.601 31.8704 149.794C29.6751 157.987 34.3875 166.149 42.5803 168.344C45.2137 169.05 47.4187 169.013 49.7805 168.392C49.7734 168.382 49.7664 168.372 49.7593 168.362Z" fill="#073B4C"/>
<path fill-rule="evenodd" clip-rule="evenodd" d="M109.191 168.362C104.303 166.91 101.434 161.82 102.761 156.865C104.111 151.827 109.29 148.837 114.328 150.187C117.529 151.045 119.904 153.448 120.863 156.379C122.104 148.741 117.625 141.167 109.852 139.084C101.659 136.889 93.4973 141.601 91.302 149.794C89.1068 157.987 93.8191 166.149 102.012 168.344C104.645 169.05 106.85 169.013 109.212 168.392C109.205 168.382 109.198 168.372 109.191 168.362Z" fill="#073B4C"/>
<mask id="path-4-inside-1_963_1083" fill="white">
<path fill-rule="evenodd" clip-rule="evenodd" d="M0.419922 63.3046C0.419922 80.1308 11.4495 94.3809 26.6732 99.2194V124.365C26.6732 124.917 27.121 125.365 27.6732 125.365H125.772C126.325 125.365 126.772 124.917 126.772 124.365V98.9048C141.505 93.786 152.08 79.7802 152.08 63.3046C152.08 42.4955 135.211 25.6265 114.402 25.6265C98.2383 25.6265 84.4521 35.8041 79.102 50.1003H73.3975C68.0475 35.8041 54.2613 25.6265 38.098 25.6265C17.289 25.6265 0.419922 42.4955 0.419922 63.3046Z"/>
</mask>
<path fill-rule="evenodd" clip-rule="evenodd" d="M0.419922 63.3046C0.419922 80.1308 11.4495 94.3809 26.6732 99.2194V124.365C26.6732 124.917 27.121 125.365 27.6732 125.365H125.772C126.325 125.365 126.772 124.917 126.772 124.365V98.9048C141.505 93.786 152.08 79.7802 152.08 63.3046C152.08 42.4955 135.211 25.6265 114.402 25.6265C98.2383 25.6265 84.4521 35.8041 79.102 50.1003H73.3975C68.0475 35.8041 54.2613 25.6265 38.098 25.6265C17.289 25.6265 0.419922 42.4955 0.419922 63.3046Z" fill="#FFD166"/>
<path d="M26.6732 99.2194H29.6732V97.025L27.5819 96.3603L26.6732 99.2194ZM126.772 98.9048L125.788 96.071L123.772 96.7712V98.9048H126.772ZM79.102 50.1003V53.1003H81.1825L81.9117 51.1518L79.102 50.1003ZM73.3975 50.1003L70.5878 51.1518L71.317 53.1003H73.3975V50.1003ZM27.5819 96.3603C13.5675 91.9062 3.41992 78.7865 3.41992 63.3046H-2.58008C-2.58008 81.4751 9.33155 96.8556 25.7645 102.078L27.5819 96.3603ZM29.6732 124.365V99.2194H23.6732V124.365H29.6732ZM27.6732 122.365C28.7778 122.365 29.6732 123.26 29.6732 124.365H23.6732C23.6732 126.574 25.4641 128.365 27.6732 128.365V122.365ZM125.772 122.365H27.6732V128.365H125.772V122.365ZM123.772 124.365C123.772 123.26 124.668 122.365 125.772 122.365V128.365C127.981 128.365 129.772 126.574 129.772 124.365H123.772ZM123.772 98.9048V124.365H129.772V98.9048H123.772ZM149.08 63.3046C149.08 78.4637 139.351 91.3585 125.788 96.071L127.757 101.739C143.659 96.2136 155.08 81.0967 155.08 63.3046H149.08ZM114.402 28.6265C133.554 28.6265 149.08 44.1524 149.08 63.3046H155.08C155.08 40.8387 136.867 22.6265 114.402 22.6265V28.6265ZM81.9117 51.1518C86.8376 37.9892 99.5299 28.6265 114.402 28.6265V22.6265C96.9466 22.6265 82.0666 33.619 76.2923 49.0489L81.9117 51.1518ZM73.3975 53.1003H79.102V47.1003H73.3975V53.1003ZM38.098 28.6265C52.9696 28.6265 65.662 37.9892 70.5878 51.1518L76.2072 49.0489C70.433 33.619 55.553 22.6265 38.098 22.6265V28.6265ZM3.41992 63.3046C3.41992 44.1524 18.9458 28.6265 38.098 28.6265V22.6265C15.6321 22.6265 -2.58008 40.8387 -2.58008 63.3046H3.41992Z" fill="#073B4C" mask="url(#path-4-inside-1_963_1083)"/>
<circle cx="76.7235" cy="39.5869" r="36.1781" fill="#FFD166" stroke="#073B4C" stroke-width="3"/>
<circle cx="76.7235" cy="39.5869" r="37.6781" fill="#FFD166"/>
<path d="M114.402 39.5869C114.402 18.7778 97.5325 1.90878 76.7235 1.90878C55.9145 1.90878 39.0454 18.7778 39.0454 39.5869" stroke="#073B4C" stroke-width="3"/>
<line x1="28.9277" y1="111.329" x2="123.42" y2="111.329" stroke="#073B4C" stroke-width="3"/>
</svg>
