<svg width="133" height="193" viewBox="0 0 133 193" fill="none" xmlns="http://www.w3.org/2000/svg">
<path d="M87.0973 66.0553V67.5553V66.0553ZM93.0183 71.6911H91.5183V71.7278L91.5201 71.7645L93.0183 71.6911ZM93.0183 72.2728L91.5201 72.1993L91.5183 72.236V72.2728H93.0183ZM93.0183 101.918H91.5183V103.503L93.1004 103.416L93.0183 101.918ZM84.5062 169.756L84.9566 168.325L83.9492 168.008L83.311 168.849L84.5062 169.756ZM70.4783 188.254L69.2831 187.348L69.2782 187.354L69.2734 187.361L70.4783 188.254ZM65.7304 190.649L65.7325 192.149H65.7325L65.7304 190.649ZM60.9758 188.268L62.1782 187.371L62.1735 187.365L60.9758 188.268ZM46.9852 169.711L48.1829 168.808L47.5423 167.958L46.5287 168.282L46.9852 169.711ZM43.2694 102.545L42.9744 104.015L44.7694 104.375V102.545H43.2694ZM43.2952 78.9356L44.7868 79.0943L44.8024 78.9472L44.789 78.7998L43.2952 78.9356ZM45.7062 73.6078L46.5894 74.8203L46.5894 74.8203L45.7062 73.6078ZM53.9783 74.9077L55.1908 74.0246V74.0246L53.9783 74.9077ZM65.7168 91.0234L64.5044 91.9066L65.7099 93.5617L66.9245 91.9132L65.7168 91.0234ZM81.5904 69.4786L82.798 70.3684L82.8992 70.2311L82.9669 70.0746L81.5904 69.4786ZM55.0951 107.319L53.6004 107.193L53.524 108.095L54.2868 108.583L55.0951 107.319ZM65.6749 117.891L64.4119 118.7L65.6749 120.671L66.9379 118.7L65.6749 117.891ZM81.1763 104.703L81.7715 106.08L82.6763 105.688V104.703H81.1763ZM81.1763 90.005H82.6763V85.4403L79.9686 89.1153L81.1763 90.005ZM70.4564 104.555L71.6641 105.445V105.445L70.4564 104.555ZM65.6734 106.964L65.6693 108.464H65.6693L65.6734 106.964ZM60.9035 104.529L62.116 103.646L60.9035 104.529ZM55.1115 96.5769L56.3239 95.6938L53.6115 91.9699V96.5769H55.1115ZM65.708 174.805L64.5124 175.711L65.7013 177.28L66.8986 175.717L65.708 174.805ZM57.6156 164.125L56.6988 162.938L55.5224 163.847L56.42 165.031L57.6156 164.125ZM73.8332 164.201L75.0239 165.113L75.936 163.923L74.7457 163.011L73.8332 164.201ZM65.6751 155.328L66.9381 154.518L65.6751 152.547L64.4121 154.518L65.6751 155.328ZM94.5183 71.4732C94.5183 67.5299 91.0677 64.5553 87.0973 64.5553V67.5553C89.6671 67.5553 91.5183 69.432 91.5183 71.4732H94.5183ZM94.5183 71.6911V71.4732H91.5183V71.6911H94.5183ZM94.5165 72.3463C94.5284 72.1031 94.5284 71.8599 94.5165 71.6176L91.5201 71.7645C91.5272 71.9092 91.5272 72.0543 91.5201 72.1993L94.5165 72.3463ZM94.5183 101.918V72.2728H91.5183V101.918H94.5183ZM93.1004 103.416C93.7127 103.382 94.3295 103.365 94.9504 103.365V100.365C94.2747 100.365 93.6031 100.384 92.9362 100.42L93.1004 103.416ZM94.9504 103.365C113.31 103.365 128.194 118.249 128.194 136.609H131.194C131.194 116.592 114.967 100.365 94.9504 100.365V103.365ZM128.194 136.609C128.194 154.969 113.31 169.853 94.9504 169.853V172.853C114.967 172.853 131.194 156.626 131.194 136.609H128.194ZM94.9504 169.853C91.4658 169.853 88.1091 169.317 84.9566 168.325L84.0559 171.187C87.4964 172.27 91.1567 172.853 94.9504 172.853V169.853ZM71.6735 189.16L85.7014 170.662L83.311 168.849L69.2831 187.348L71.6735 189.16ZM65.7325 192.149C68.079 192.145 70.2857 191.032 71.6832 189.147L69.2734 187.361C68.4408 188.484 67.1262 189.147 65.7283 189.149L65.7325 192.149ZM59.7734 189.164C61.1763 191.045 63.3861 192.152 65.7325 192.149L65.7283 189.149C64.3304 189.151 63.0139 188.491 62.1782 187.371L59.7734 189.164ZM45.7875 170.614L59.778 189.171L62.1735 187.365L48.1829 168.808L45.7875 170.614ZM46.5287 168.282C43.337 169.302 39.9341 169.853 36.3996 169.853V172.853C40.2476 172.853 43.9584 172.253 47.4417 171.14L46.5287 168.282ZM36.3996 169.853C18.0395 169.853 3.15576 154.969 3.15576 136.609H0.155762C0.155762 156.626 16.3827 172.853 36.3996 172.853V169.853ZM3.15576 136.609C3.15576 118.249 18.0395 103.366 36.3996 103.366V100.366C16.3827 100.366 0.155762 116.592 0.155762 136.609H3.15576ZM36.3996 103.366C38.6518 103.366 40.8503 103.589 42.9744 104.015L43.5644 101.074C41.2471 100.609 38.851 100.366 36.3996 100.366V103.366ZM41.7694 79.4229V102.545H44.7694V79.4229H41.7694ZM41.8036 78.7769C41.781 78.9899 41.7694 79.2054 41.7694 79.4229H44.7694C44.7694 79.3118 44.7753 79.2022 44.7868 79.0943L41.8036 78.7769ZM44.8231 72.3954C42.6322 73.9911 41.5732 76.5613 41.8014 79.0714L44.789 78.7998C44.6524 77.2972 45.2865 75.7693 46.5894 74.8203L44.8231 72.3954ZM55.1908 74.0246C52.7777 70.7117 48.1359 69.9823 44.8231 72.3954L46.5894 74.8203C48.563 73.3827 51.3283 73.8173 52.7659 75.7909L55.1908 74.0246ZM66.9293 90.1403L55.1908 74.0246L52.7659 75.7909L64.5044 91.9066L66.9293 90.1403ZM80.3828 68.5889L64.5092 90.1337L66.9245 91.9132L82.798 70.3684L80.3828 68.5889ZM87.0973 64.5553C84.0391 64.5553 81.3352 66.2927 80.2139 68.8827L82.9669 70.0746C83.5819 68.6541 85.1548 67.5553 87.0973 67.5553V64.5553ZM54.2868 108.583C58.3495 111.181 61.8102 114.639 64.4119 118.7L66.9379 117.082C64.1023 112.656 60.3313 108.888 55.9033 106.056L54.2868 108.583ZM66.9379 118.7C70.4959 113.147 75.6598 108.722 81.7715 106.08L80.5811 103.326C73.9158 106.207 68.289 111.03 64.4119 117.082L66.9379 118.7ZM79.6763 90.005V104.703H82.6763V90.005H79.6763ZM71.6641 105.445L82.3839 90.8948L79.9686 89.1153L69.2488 103.665L71.6641 105.445ZM65.6693 108.464C68.0345 108.47 70.2611 107.349 71.6641 105.445L69.2488 103.665C68.413 104.799 67.0865 105.468 65.6775 105.464L65.6693 108.464ZM59.6911 105.412C61.0836 107.324 63.3041 108.457 65.6693 108.464L65.6775 105.464C64.2684 105.46 62.9456 104.785 62.116 103.646L59.6911 105.412ZM53.899 97.4601L59.6911 105.412L62.116 103.646L56.3239 95.6938L53.899 97.4601ZM56.6115 106.93V96.5769H53.6115V106.93H56.6115ZM56.5897 107.446C56.6041 107.275 56.6115 107.103 56.6115 106.93H53.6115C53.6115 107.019 53.6077 107.106 53.6004 107.193L56.5897 107.446ZM66.9035 173.899L58.8111 163.22L56.42 165.031L64.5124 175.711L66.9035 173.899ZM72.6425 163.289L64.5173 173.893L66.8986 175.717L75.0239 165.113L72.6425 163.289ZM74.7457 163.011C71.6768 160.658 69.0297 157.783 66.9381 154.518L64.4121 156.137C66.692 159.695 69.5765 162.828 72.9207 165.392L74.7457 163.011ZM64.4121 154.518C62.3419 157.75 59.7277 160.599 56.6988 162.938L58.5323 165.313C61.8329 162.764 64.6816 159.659 66.9381 156.137L64.4121 154.518ZM116.352 136.609C116.352 148.429 106.77 158.011 94.9504 158.011V161.011C108.427 161.011 119.352 150.086 119.352 136.609H116.352ZM94.9504 115.207C106.77 115.207 116.352 124.789 116.352 136.609H119.352C119.352 123.132 108.427 112.207 94.9504 112.207V115.207ZM73.5487 136.609C73.5487 124.789 83.1306 115.207 94.9504 115.207V112.207C81.4737 112.207 70.5487 123.132 70.5487 136.609H73.5487ZM94.9504 158.011C83.1306 158.011 73.5487 148.429 73.5487 136.609H70.5487C70.5487 150.086 81.4737 161.011 94.9504 161.011V158.011ZM57.8013 136.609C57.8013 148.429 48.2194 158.011 36.3996 158.011V161.011C49.8763 161.011 60.8013 150.086 60.8013 136.609H57.8013ZM36.3996 115.208C48.2194 115.208 57.8013 124.79 57.8013 136.609H60.8013C60.8013 123.133 49.8763 112.208 36.3996 112.208V115.208ZM14.9978 136.609C14.9978 124.79 24.5797 115.208 36.3996 115.208V112.208C22.9229 112.208 11.9978 123.133 11.9978 136.609H14.9978ZM36.3996 158.011C24.5797 158.011 14.9978 148.429 14.9978 136.609H11.9978C11.9978 150.086 22.9229 161.011 36.3996 161.011V158.011Z" fill="#073B4C"/>
<path fill-rule="evenodd" clip-rule="evenodd" d="M39.6583 152.362C34.7707 150.91 31.9009 145.82 33.2286 140.865C34.5786 135.827 39.7572 132.837 44.7953 134.187C47.9967 135.045 50.371 137.448 51.3304 140.379C52.5713 132.741 48.0918 125.167 40.3194 123.084C32.1266 120.889 23.9646 125.601 21.7693 133.794C19.5741 141.987 24.2864 150.149 32.4792 152.344C35.1126 153.05 37.3176 153.013 39.6794 152.392C39.6724 152.382 39.6653 152.372 39.6583 152.362Z" fill="#073B4C"/>
<path fill-rule="evenodd" clip-rule="evenodd" d="M99.0899 152.362C94.2024 150.91 91.3326 145.82 92.6602 140.865C94.0102 135.827 99.1888 132.837 104.227 134.187C107.428 135.045 109.803 137.448 110.762 140.379C112.003 132.741 107.523 125.167 99.7511 123.084C91.5583 120.889 83.3962 125.601 81.201 133.794C79.0057 141.987 83.7181 150.149 91.9109 152.344C94.5443 153.05 96.7493 153.013 99.1111 152.392C99.104 152.382 99.0969 152.372 99.0899 152.362Z" fill="#073B4C"/>
<path d="M18.0723 106.423V93.6702H115.171V106.423H18.0723Z" fill="#FFD166" stroke="#073B4C" stroke-width="3" stroke-linecap="round" stroke-linejoin="round"/>
<path d="M3.23274 49.773C2.42124 47.2614 3.39754 44.4986 5.60874 43.0394C42.4647 18.7181 90.5102 18.6435 127.289 43.0659C129.471 44.5145 130.426 47.2349 129.628 49.7291L115.127 95.0815H17.872L3.23274 49.773Z" fill="#FFD166" stroke="#073B4C" stroke-width="3" stroke-linecap="round" stroke-linejoin="round"/>
<line x1="64.6523" y1="48.8545" x2="64.6523" y2="76.8688" stroke="#073B4C" stroke-width="6" stroke-linecap="round"/>
<line x1="79.6821" y1="62.0421" x2="51.6678" y2="62.0421" stroke="#073B4C" stroke-width="6" stroke-linecap="round"/>
</svg>
