<svg width="201" height="170" viewBox="0 0 201 170" fill="none" xmlns="http://www.w3.org/2000/svg">
<path d="M128.119 48.8256H126.619V48.8617L126.621 48.8976L128.119 48.8256ZM128.119 49.3966L126.621 49.3245L126.619 49.3605V49.3966H128.119ZM128.119 79.0469H126.619V80.6314L128.201 80.5447L128.119 79.0469ZM119.607 146.885L120.058 145.454L119.05 145.137L118.412 145.978L119.607 146.885ZM105.579 165.383L104.384 164.476L104.379 164.483L104.375 164.489L105.579 165.383ZM100.832 167.777L100.834 169.277H100.834L100.832 167.777ZM96.0769 165.396L97.2793 164.499L97.2747 164.493L96.0769 165.396ZM82.0866 146.84L83.2843 145.937L82.6437 145.087L81.63 145.411L82.0866 146.84ZM78.3705 79.6737L78.0755 81.1444L79.8705 81.5044V79.6737H78.3705ZM78.3961 56.0659L79.8878 56.2241L79.9034 56.0771L79.89 55.9298L78.3961 56.0659ZM80.8071 50.737L79.9239 49.5245V49.5245L80.8071 50.737ZM89.0791 52.0369L87.8667 52.9201L89.0791 52.0369ZM100.818 68.1526L99.6052 69.0358L100.811 70.6908L102.025 69.0424L100.818 68.1526ZM116.691 46.6074L117.899 47.4972L118 47.3599L118.068 47.2034L116.691 46.6074ZM90.1961 84.4483L88.7015 84.3216L88.625 85.224L89.3879 85.7119L90.1961 84.4483ZM100.776 95.0196L99.5129 95.8288L100.776 97.8L102.039 95.8288L100.776 95.0196ZM116.277 81.8314L116.873 83.2083L117.777 82.8171V81.8314H116.277ZM116.277 67.1339H117.777V62.5691L115.07 66.2441L116.277 67.1339ZM105.557 81.684L106.765 82.5737L106.765 82.5737L105.557 81.684ZM100.774 84.0929L100.778 82.5929L100.774 84.0929ZM96.0044 81.6579L97.2168 80.7748L96.0044 81.6579ZM90.2126 73.7065L91.425 72.8233L88.7126 69.0994V73.7065H90.2126ZM100.809 151.934L99.6136 152.84L100.802 154.409L102 152.846L100.809 151.934ZM92.7169 141.254L91.8001 140.067L90.6237 140.975L91.5213 142.16L92.7169 141.254ZM108.934 141.33L110.125 142.242L111.037 141.052L109.847 140.139L108.934 141.33ZM100.776 132.457L102.039 131.647L100.776 129.676L99.5132 131.648L100.776 132.457ZM129.619 48.602C129.619 44.6588 126.169 41.6841 122.198 41.6841V44.6841C124.768 44.6841 126.619 46.5608 126.619 48.602H129.619ZM129.619 48.8256V48.602H126.619V48.8256H129.619ZM129.618 49.4686C129.629 49.23 129.629 48.9914 129.618 48.7537L126.621 48.8976C126.628 49.0397 126.628 49.1822 126.621 49.3245L129.618 49.4686ZM129.619 79.0469V49.3966H126.619V79.0469H129.619ZM128.201 80.5447C128.814 80.5111 129.43 80.4941 130.051 80.4941V77.4941C129.376 77.4941 128.704 77.5126 128.037 77.5492L128.201 80.5447ZM130.051 80.4941C148.411 80.4941 163.295 95.3779 163.295 113.738H166.295C166.295 93.721 150.068 77.4941 130.051 77.4941V80.4941ZM163.295 113.738C163.295 132.098 148.411 146.982 130.051 146.982V149.982C150.068 149.982 166.295 133.755 166.295 113.738H163.295ZM130.051 146.982C126.567 146.982 123.21 146.446 120.058 145.454L119.157 148.315C122.597 149.398 126.258 149.982 130.051 149.982V146.982ZM106.775 166.289L120.802 147.791L118.412 145.978L104.384 164.476L106.775 166.289ZM100.834 169.277C103.18 169.274 105.387 168.161 106.784 166.276L104.375 164.489C103.542 165.612 102.227 166.275 100.829 166.277L100.834 169.277ZM94.8745 166.293C96.2774 168.174 98.4872 169.281 100.834 169.277L100.829 166.277C99.4316 166.279 98.1151 165.62 97.2793 164.499L94.8745 166.293ZM80.8888 147.743L94.8792 166.299L97.2747 164.493L83.2843 145.937L80.8888 147.743ZM81.63 145.411C78.4383 146.431 75.0353 146.982 71.5007 146.982V149.982C75.3488 149.982 79.0597 149.382 82.5431 148.269L81.63 145.411ZM71.5007 146.982C53.1406 146.982 38.2568 132.098 38.2568 113.738H35.2568C35.2568 133.755 51.4837 149.982 71.5007 149.982V146.982ZM38.2568 113.738C38.2568 95.3784 53.1406 80.4946 71.5007 80.4946V77.4946C51.4837 77.4946 35.2568 93.7215 35.2568 113.738H38.2568ZM71.5007 80.4946C73.7529 80.4946 75.9514 80.7184 78.0755 81.1444L78.6655 78.203C76.3482 77.7382 73.9521 77.4946 71.5007 77.4946V80.4946ZM76.8705 56.5517V79.6737H79.8705V56.5517H76.8705ZM76.9045 55.9077C76.882 56.1201 76.8705 56.3349 76.8705 56.5517H79.8705C79.8705 56.4409 79.8764 56.3317 79.8878 56.2241L76.9045 55.9077ZM79.9239 49.5245C77.7327 51.1206 76.6736 53.6915 76.9023 56.202L79.89 55.9298C79.753 54.4269 80.3871 52.8986 81.6902 51.9495L79.9239 49.5245ZM90.2916 51.1538C87.8785 47.8409 83.2368 47.1115 79.9239 49.5245L81.6902 51.9495C83.6638 50.5119 86.4291 50.9464 87.8667 52.9201L90.2916 51.1538ZM102.03 67.2695L90.2916 51.1538L87.8667 52.9201L99.6052 69.0358L102.03 67.2695ZM115.484 45.7177L99.61 67.2629L102.025 69.0424L117.899 47.4972L115.484 45.7177ZM122.198 41.6841C119.14 41.6841 116.436 43.4215 115.315 46.0115L118.068 47.2034C118.683 45.7829 120.256 44.6841 122.198 44.6841V41.6841ZM89.3879 85.7119C93.4505 88.3104 96.9112 91.7684 99.5129 95.8288L102.039 94.2104C99.2032 89.7848 95.4323 86.0168 91.0044 83.1846L89.3879 85.7119ZM102.039 95.8288C105.597 90.2756 110.761 85.8503 116.873 83.2083L115.682 80.4546C109.017 83.3359 103.39 88.1591 99.5129 94.2104L102.039 95.8288ZM114.777 67.1339V81.8314H117.777V67.1339H114.777ZM106.765 82.5737L117.485 68.0236L115.07 66.2441L104.35 80.7942L106.765 82.5737ZM100.77 85.5929C103.135 85.5993 105.362 84.4779 106.765 82.5737L104.35 80.7942C103.514 81.9287 102.187 82.5967 100.778 82.5929L100.77 85.5929ZM94.7919 82.5411C96.1844 84.4529 98.4049 85.5864 100.77 85.5929L100.778 82.5929C99.3692 82.589 98.0464 81.9138 97.2168 80.7748L94.7919 82.5411ZM89.0001 74.5896L94.7919 82.5411L97.2168 80.7748L91.425 72.8233L89.0001 74.5896ZM91.7126 84.0589V73.7065H88.7126V84.0589H91.7126ZM91.6908 84.5749C91.7052 84.4044 91.7126 84.2323 91.7126 84.0589H88.7126C88.7126 84.1476 88.7088 84.2351 88.7015 84.3216L91.6908 84.5749ZM102.005 151.028L93.9124 140.348L91.5213 142.16L99.6136 152.84L102.005 151.028ZM107.744 140.418L99.6185 151.021L102 152.846L110.125 142.242L107.744 140.418ZM109.847 140.139C106.778 137.787 104.131 134.912 102.039 131.647L99.5132 133.266C101.793 136.824 104.678 139.957 108.022 142.521L109.847 140.139ZM99.5132 131.648C97.4431 134.878 94.8289 137.728 91.8001 140.067L93.6337 142.441C96.9341 139.893 99.7827 136.788 102.039 133.266L99.5132 131.648ZM151.453 113.738C151.453 125.558 141.871 135.14 130.051 135.14V138.14C143.528 138.14 154.453 127.215 154.453 113.738H151.453ZM130.051 92.3362C141.871 92.3362 151.453 101.918 151.453 113.738H154.453C154.453 100.261 143.528 89.3362 130.051 89.3362V92.3362ZM108.65 113.738C108.65 101.918 118.232 92.3362 130.051 92.3362V89.3362C116.575 89.3362 105.65 100.261 105.65 113.738H108.65ZM130.051 135.14C118.232 135.14 108.65 125.558 108.65 113.738H105.65C105.65 127.215 116.575 138.14 130.051 138.14V135.14ZM92.9024 113.738C92.9024 125.558 83.3205 135.14 71.5007 135.14V138.14C84.9774 138.14 95.9024 127.215 95.9024 113.738H92.9024ZM71.5007 92.3367C83.3205 92.3367 92.9024 101.919 92.9024 113.738H95.9024C95.9024 100.262 84.9774 89.3367 71.5007 89.3367V92.3367ZM50.0989 113.738C50.0989 101.919 59.6808 92.3367 71.5007 92.3367V89.3367C58.0239 89.3367 47.0989 100.262 47.0989 113.738H50.0989ZM71.5007 135.14C59.6808 135.14 50.0989 125.558 50.0989 113.738H47.0989C47.0989 127.215 58.0239 138.14 71.5007 138.14V135.14Z" fill="#073B4C"/>
<path fill-rule="evenodd" clip-rule="evenodd" d="M74.7588 129.49C69.8714 128.038 67.0017 122.948 68.3294 117.993C69.6793 112.955 74.8579 109.965 79.8961 111.315C83.0973 112.173 85.4716 114.576 86.4311 117.507C87.6718 109.869 83.1923 102.295 75.42 100.212C67.2272 98.0169 59.0652 102.729 56.8699 110.922C54.6747 119.115 59.387 127.277 67.5798 129.472C70.2132 130.178 72.4182 130.141 74.78 129.52C74.7729 129.51 74.7659 129.5 74.7588 129.49Z" fill="#073B4C"/>
<path fill-rule="evenodd" clip-rule="evenodd" d="M134.19 129.49C129.303 128.038 126.433 122.948 127.761 117.993C129.11 112.955 134.289 109.965 139.327 111.315C142.528 112.173 144.903 114.576 145.862 117.507C147.103 109.869 142.623 102.295 134.851 100.212C126.658 98.0169 118.496 102.729 116.301 110.922C114.106 119.115 118.818 127.277 127.011 129.472C129.644 130.178 131.849 130.141 134.211 129.52C134.204 129.51 134.197 129.5 134.19 129.49Z" fill="#073B4C"/>
<path d="M62.1909 50.8237C62.1909 50.2714 62.6386 49.8237 63.1909 49.8237H138.361C138.914 49.8237 139.361 50.2714 139.361 50.8237V77.3739C139.361 77.7684 139.129 78.1261 138.769 78.287L101.184 95.0749C100.924 95.1908 100.628 95.1908 100.368 95.0749L62.7831 78.287C62.4229 78.1261 62.1909 77.7684 62.1909 77.3739V50.8237Z" fill="#FFD166" stroke="#073B4C" stroke-width="3" stroke-linecap="round" stroke-linejoin="round"/>
<path d="M31.3013 47.5051L100.776 20.6816L170.251 47.5051L100.776 74.3286L31.3013 47.5051Z" fill="#FFD166" stroke="#073B4C"/>
<path d="M100.416 2.46474C100.648 2.37526 100.904 2.37526 101.136 2.46474L198.164 39.9264C199.018 40.2558 199.018 41.4628 198.164 41.7922L101.136 79.2538C100.904 79.3433 100.648 79.3433 100.416 79.2538L3.38743 41.7922C2.53434 41.4628 2.53433 40.2558 3.38743 39.9264L100.416 2.46474Z" fill="#FFD166" stroke="#073B4C" stroke-width="3" stroke-linejoin="round"/>
<rect x="176.012" y="87.2027" width="13.2834" height="44.6921" rx="6.64169" stroke="#073B4C" stroke-width="3"/>
<line x1="182.781" y1="88.0081" x2="182.781" y2="47.41" stroke="#073B4C" stroke-width="3"/>
</svg>
