<svg width="165" height="186" viewBox="0 0 165 186" fill="none" xmlns="http://www.w3.org/2000/svg">
<path d="M108.81 64.8216H107.31V64.8582L107.312 64.8947L108.81 64.8216ZM108.81 65.4007L107.312 65.3276L107.31 65.3641V65.4007H108.81ZM108.81 95.0471H107.31V96.6315L108.892 96.5448L108.81 95.0471ZM100.298 162.885L100.749 161.454L99.7411 161.137L99.1029 161.978L100.298 162.885ZM86.2704 181.383L85.0752 180.476L85.0703 180.483L85.0655 180.489L86.2704 181.383ZM81.5225 183.777L81.5246 185.277H81.5246L81.5225 183.777ZM76.7678 181.396L77.9703 180.499L77.9656 180.493L76.7678 181.396ZM62.7775 162.84L63.9752 161.937L63.3345 161.087L62.3209 161.411L62.7775 162.84ZM59.0614 95.6737L58.7664 97.1444L60.5614 97.5044V95.6737H59.0614ZM59.0871 72.065L60.5787 72.2236L60.5944 72.0765L60.581 71.9292L59.0871 72.065ZM61.4981 66.7371L60.615 65.5246V65.5246L61.4981 66.7371ZM69.7702 68.037L70.9827 67.1538L69.7702 68.037ZM81.5088 84.1527L80.2963 85.0358L81.5018 86.6909L82.7164 85.0424L81.5088 84.1527ZM97.3822 62.6081L98.5898 63.4978L98.691 63.3605L98.7588 63.2039L97.3822 62.6081ZM70.887 100.448L69.3924 100.322L69.3159 101.224L70.0788 101.712L70.887 100.448ZM81.4668 111.02L80.2039 111.829L81.4669 113.8L82.7298 111.829L81.4668 111.02ZM96.9682 97.8316L97.5634 99.2085L98.4682 98.8173V97.8316H96.9682ZM96.9682 83.1342H98.4682V78.5695L95.7606 82.2445L96.9682 83.1342ZM86.2484 97.6841L85.0407 96.7943L86.2484 97.6841ZM81.4653 100.093L81.4612 101.593L81.4653 100.093ZM76.6954 97.658L77.9079 96.7749L76.6954 97.658ZM70.9034 89.7063L72.1159 88.8231L69.4034 85.0992V89.7063H70.9034ZM81.5001 167.934L80.3045 168.84L81.4934 170.409L82.6907 168.846L81.5001 167.934ZM73.4078 157.254L72.491 156.067L71.3146 156.976L72.2122 158.16L73.4078 157.254ZM89.6251 157.33L90.8158 158.242L91.728 157.052L90.5376 156.14L89.6251 157.33ZM81.4671 148.457L82.7301 147.648L81.4671 145.676L80.2041 147.648L81.4671 148.457ZM110.31 64.6022C110.31 60.6589 106.86 57.6842 102.889 57.6842V60.6842C105.459 60.6842 107.31 62.5609 107.31 64.6022H110.31ZM110.31 64.8216V64.6022H107.31V64.8216H110.31ZM110.309 65.4739C110.32 65.2318 110.32 64.9898 110.309 64.7486L107.312 64.8947C107.319 65.0388 107.319 65.1833 107.312 65.3276L110.309 65.4739ZM110.31 95.0471V65.4007H107.31V95.0471H110.31ZM108.892 96.5448C109.505 96.5113 110.121 96.4943 110.742 96.4943V93.4943C110.067 93.4943 109.395 93.5128 108.728 93.5493L108.892 96.5448ZM110.742 96.4943C129.102 96.4943 143.986 111.378 143.986 129.738H146.986C146.986 109.721 130.759 93.4943 110.742 93.4943V96.4943ZM143.986 129.738C143.986 148.098 129.102 162.982 110.742 162.982V165.982C130.759 165.982 146.986 149.755 146.986 129.738H143.986ZM110.742 162.982C107.258 162.982 103.901 162.446 100.749 161.454L99.8478 164.315C103.288 165.399 106.949 165.982 110.742 165.982V162.982ZM87.4656 182.289L101.493 163.791L99.1029 161.978L85.0752 180.476L87.4656 182.289ZM81.5246 185.277C83.8711 185.274 86.0778 184.161 87.4753 182.276L85.0655 180.489C84.2329 181.612 82.9183 182.275 81.5204 182.277L81.5246 185.277ZM75.5655 182.293C76.9683 184.174 79.1781 185.281 81.5246 185.277L81.5204 182.277C80.1225 182.279 78.806 181.62 77.9702 180.499L75.5655 182.293ZM61.5797 163.743L75.5701 182.299L77.9656 180.493L63.9752 161.937L61.5797 163.743ZM62.3209 161.411C59.1291 162.431 55.7262 162.982 52.1916 162.982V165.982C56.0397 165.982 59.7506 165.382 63.234 164.269L62.3209 161.411ZM52.1916 162.982C33.8315 162.982 18.9478 148.098 18.9478 129.738H15.9478C15.9478 149.755 32.1747 165.982 52.1916 165.982V162.982ZM18.9478 129.738C18.9478 111.378 33.8315 96.4946 52.1916 96.4946V93.4946C32.1747 93.4946 15.9478 109.722 15.9478 129.738H18.9478ZM52.1916 96.4946C54.4438 96.4946 56.6423 96.7184 58.7664 97.1444L59.3564 94.203C57.0391 93.7382 54.643 93.4946 52.1916 93.4946V96.4946ZM57.5614 72.5519V95.6737H60.5614V72.5519H57.5614ZM57.5955 71.9065C57.5729 72.1193 57.5614 72.3346 57.5614 72.5519H60.5614C60.5614 72.4408 60.5673 72.3313 60.5787 72.2236L57.5955 71.9065ZM60.615 65.5246C58.4241 67.1204 57.365 69.6907 57.5933 72.2009L60.581 71.9292C60.4443 70.4265 61.0784 68.8985 62.3813 67.9495L60.615 65.5246ZM70.9827 67.1538C68.5696 63.841 63.9279 63.1116 60.615 65.5246L62.3813 67.9495C64.3549 66.512 67.1202 66.9465 68.5578 68.9201L70.9827 67.1538ZM82.7212 83.2696L70.9827 67.1538L68.5578 68.9201L80.2963 85.0358L82.7212 83.2696ZM96.1745 61.7183L80.3011 83.263L82.7164 85.0424L98.5898 63.4978L96.1745 61.7183ZM102.889 57.6842C99.8308 57.6842 97.1268 59.4219 96.0056 62.0122L98.7588 63.2039C99.3736 61.7833 100.947 60.6842 102.889 60.6842V57.6842ZM70.0788 101.712C74.1415 104.31 77.6022 107.768 80.2039 111.829L82.7298 110.21C79.8942 105.785 76.1232 102.017 71.6953 99.1846L70.0788 101.712ZM82.7298 111.829C86.2879 106.276 91.4517 101.85 97.5634 99.2085L96.373 96.4548C89.7077 99.3361 84.081 104.159 80.2038 110.211L82.7298 111.829ZM95.4682 83.1342V97.8316H98.4682V83.1342H95.4682ZM87.456 98.5738L98.1759 84.024L95.7606 82.2445L85.0407 96.7943L87.456 98.5738ZM81.4612 101.593C83.8264 101.599 86.053 100.478 87.456 98.5738L85.0407 96.7943C84.2049 97.9287 82.8784 98.5968 81.4694 98.5929L81.4612 101.593ZM75.483 98.5412C76.8755 100.453 79.096 101.586 81.4612 101.593L81.4694 98.5929C80.0603 98.5891 78.7375 97.9138 77.9079 96.7749L75.483 98.5412ZM69.691 90.5894L75.483 98.5412L77.9079 96.7749L72.1159 88.8231L69.691 90.5894ZM72.4034 100.059V89.7063H69.4034V100.059H72.4034ZM72.3817 100.575C72.3961 100.404 72.4034 100.232 72.4034 100.059H69.4034C69.4034 100.148 69.3997 100.235 69.3924 100.322L72.3817 100.575ZM82.6956 167.028L74.6033 156.348L72.2122 158.16L80.3045 168.84L82.6956 167.028ZM88.4345 156.418L80.3094 167.022L82.6907 168.846L90.8158 158.242L88.4345 156.418ZM90.5376 156.14C87.4687 153.787 84.8217 150.912 82.7301 147.648L80.2041 149.266C82.484 152.824 85.3684 155.957 88.7126 158.521L90.5376 156.14ZM80.2041 147.648C78.1339 150.879 75.5198 153.728 72.491 156.067L74.3246 158.442C77.625 155.893 80.4736 152.788 82.7301 149.266L80.2041 147.648ZM132.144 129.738C132.144 141.558 122.562 151.14 110.742 151.14V154.14C124.219 154.14 135.144 143.215 135.144 129.738H132.144ZM110.742 108.336C122.562 108.336 132.144 117.918 132.144 129.738H135.144C135.144 116.261 124.219 105.336 110.742 105.336V108.336ZM89.3406 129.738C89.3406 117.918 98.9225 108.336 110.742 108.336V105.336C97.2656 105.336 86.3406 116.261 86.3406 129.738H89.3406ZM110.742 151.14C98.9225 151.14 89.3406 141.558 89.3406 129.738H86.3406C86.3406 143.215 97.2656 154.14 110.742 154.14V151.14ZM73.5933 129.738C73.5933 141.558 64.0114 151.14 52.1916 151.14V154.14C65.6683 154.14 76.5933 143.215 76.5933 129.738H73.5933ZM52.1916 108.337C64.0114 108.337 73.5933 117.919 73.5933 129.738H76.5933C76.5933 116.262 65.6683 105.337 52.1916 105.337V108.337ZM30.7898 129.738C30.7898 117.919 40.3717 108.337 52.1916 108.337V105.337C38.7148 105.337 27.7898 116.262 27.7898 129.738H30.7898ZM52.1916 151.14C40.3717 151.14 30.7898 141.558 30.7898 129.738H27.7898C27.7898 143.215 38.7148 154.14 52.1916 154.14V151.14Z" fill="#073B4C"/>
<path fill-rule="evenodd" clip-rule="evenodd" d="M55.4497 145.491C50.5623 144.039 47.6927 138.949 49.0203 133.994C50.3702 128.956 55.5489 125.966 60.587 127.316C63.7882 128.174 66.1625 130.577 67.122 133.508C68.3627 125.87 63.8832 118.296 56.1109 116.213C47.9181 114.018 39.7561 118.73 37.5608 126.923C35.3656 135.116 40.0779 143.278 48.2707 145.473C50.9041 146.179 53.1091 146.142 55.4709 145.521C55.4638 145.511 55.4568 145.501 55.4497 145.491Z" fill="#073B4C"/>
<path fill-rule="evenodd" clip-rule="evenodd" d="M114.881 145.491C109.993 144.039 107.124 138.949 108.451 133.994C109.801 128.956 114.98 125.966 120.018 127.316C123.219 128.174 125.594 130.577 126.553 133.508C127.794 125.87 123.314 118.296 115.542 116.213C107.349 114.018 99.1872 118.73 96.992 126.923C94.7967 135.116 99.5091 143.278 107.702 145.473C110.335 146.179 112.54 146.142 114.902 145.521C114.895 145.511 114.888 145.501 114.881 145.491Z" fill="#073B4C"/>
<path d="M33.8647 91.7222H130.964V99.6747C130.964 107.683 124.472 114.175 116.464 114.175H48.3647C40.3566 114.175 33.8647 107.683 33.8647 99.6747V91.7222Z" fill="#FFD166" stroke="#073B4C" stroke-width="3"/>
<path d="M33.8647 80.2566H130.964V93.0091H33.8647V80.2566Z" fill="#FFD166" stroke="#073B4C" stroke-width="3"/>
<path d="M11.466 62.3306C7.31596 58.6288 7.77988 52.0047 12.4054 48.9174L32.7292 35.3528C62.8102 15.2759 102.018 15.2759 132.099 35.3528L152.381 48.8896C157.018 51.9842 157.47 58.6289 153.297 62.3239L131.446 81.6678H33.1448L11.466 62.3306Z" fill="#FFD166" stroke="#073B4C" stroke-width="3"/>
<path d="M69.452 46.3302C69.3068 45.5428 69.8056 44.7802 70.5852 44.5977L82.1649 41.8867C82.3898 41.834 82.6238 41.834 82.8487 41.8867L94.4045 44.5921C95.1889 44.7757 95.6882 45.5462 95.5353 46.3372L92.243 63.3688C92.1773 63.7087 91.9961 64.0153 91.7301 64.2368L83.3741 71.1948C82.8179 71.6579 82.0105 71.6579 81.4544 71.1948L80.4945 72.3475L81.4544 71.1948L73.1094 64.2461C72.84 64.0218 72.6577 63.7102 72.5941 63.3655L69.452 46.3302Z" fill="#FFD166" stroke="#073B4C" stroke-width="3" stroke-linecap="round" stroke-linejoin="round"/>
</svg>
