<svg width="51" height="51" viewBox="0 0 51 51" fill="none" xmlns="http://www.w3.org/2000/svg">
<path d="M43.1016 24.4233L36.7891 24.4233L36.7891 19.689C36.7891 19.6814 36.7891 19.6742 36.7892 19.6672C36.8912 19.6513 37.0375 19.6377 37.245 19.6312C37.4694 19.6242 37.6917 19.626 37.9536 19.628C38.0936 19.6292 38.245 19.6304 38.4141 19.6304L41.5391 19.6304L43.0391 19.6304L43.0391 18.1304L43.0391 10.3374L43.0391 8.8374L41.5391 8.8374L35.2891 8.8374C29.286 8.8374 24.4141 13.6917 24.4141 19.689L24.4141 24.4233L19.6641 24.4233L18.1641 24.4233L18.1641 25.9233L18.1641 33.7163L18.1641 35.2163L19.6641 35.2163L24.4141 35.2163L24.4141 49.3608L7.16406 49.3608C4.54168 49.3608 2.41406 47.2331 2.41406 44.6264L2.41406 7.22021C2.41406 4.61456 4.54187 2.48584 7.16406 2.48584L44.6641 2.48584C47.2863 2.48584 49.4141 4.61456 49.4141 7.22021L49.4141 44.6264C49.4141 47.2331 47.2864 49.3608 44.6641 49.3608L36.7891 49.3608L36.7891 35.2163L39.9766 35.2163L40.9912 35.2163L41.3688 34.2746L44.4938 26.4816L45.3192 24.4233L43.1016 24.4233ZM36.805 19.5031C36.8051 19.5031 36.8048 19.504 36.8043 19.5057C36.8047 19.504 36.805 19.5031 36.805 19.5031Z" stroke="#FFD166" stroke-width="3"/>
</svg>
