<svg width="32" height="32" viewBox="0 0 32 32" fill="none" xmlns="http://www.w3.org/2000/svg">
<path d="M15.9994 31.25H15.9997C20.0428 31.2454 23.919 29.6373 26.778 26.7785C29.637 23.9196 31.2453 20.0434 31.25 16.0003V16C31.25 12.9839 30.3556 10.0355 28.68 7.52762C27.0043 5.01979 24.6226 3.06516 21.8361 1.9109C19.0495 0.756649 15.9833 0.454611 13.0251 1.04299C10.0669 1.63136 7.34962 3.08372 5.21685 5.21641C3.08407 7.3491 1.6316 10.0663 1.04311 13.0245C0.454612 15.9827 0.756525 19.0489 1.91067 21.8355C3.06481 24.6221 5.01934 27.0038 7.52711 28.6796C10.0349 30.3554 12.9832 31.2499 15.9994 31.25ZM8.81565 5.2488C10.942 3.82789 13.4419 3.06942 15.9993 3.06929C19.4277 3.07313 22.7145 4.43668 25.1388 6.86083C27.5631 9.28503 28.9268 12.5719 28.9307 16.0003C28.9307 18.5576 28.1723 21.0575 26.7515 23.1839C25.3307 25.3103 23.3113 26.9677 20.9485 27.9464C18.5858 28.9251 15.9859 29.1812 13.4776 28.6823C10.9693 28.1834 8.66524 26.9519 6.85682 25.1436C5.0484 23.3353 3.81682 21.0313 3.31782 18.523C2.81882 16.0148 3.07481 13.4148 4.05341 11.052C5.03202 8.68926 6.68929 6.66971 8.81565 5.2488Z" fill="#FFD166" stroke="#FFD166" stroke-width="0.5"/>
<path d="M17.4623 22.6555C17.4634 22.5594 17.4538 22.4636 17.4337 22.3697C17.4174 22.273 17.3898 22.1785 17.3514 22.0883L17.3514 22.0882L17.3492 22.0832C17.3114 21.9998 17.2669 21.9196 17.216 21.8434C17.1635 21.7599 17.1001 21.6836 17.0274 21.6168C16.8588 21.4487 16.6515 21.3243 16.4236 21.2547C16.1948 21.1848 15.9524 21.1722 15.7177 21.218C15.6215 21.2347 15.5275 21.262 15.4374 21.2994C15.3466 21.3365 15.2606 21.3844 15.1814 21.4421C15.0276 21.5489 14.8941 21.6824 14.7874 21.8363L14.7874 21.8362L14.7854 21.8392C14.7334 21.9164 14.6881 21.9978 14.6497 22.0826L14.6497 22.0826L14.6475 22.0877C14.6091 22.1779 14.5815 22.2724 14.5652 22.3691C14.5451 22.463 14.5355 22.5589 14.5366 22.6549C14.5396 23.0413 14.6945 23.4111 14.9677 23.6843C15.1818 23.8984 15.4552 24.0398 15.7495 24.0924V24.1179L16.0013 24.116C16.3879 24.1131 16.7578 23.9583 17.0312 23.6849C17.3045 23.4116 17.4593 23.0419 17.4623 22.6555ZM17.4623 22.6555C17.4623 22.6553 17.4623 22.6552 17.4623 22.655L17.2123 22.6531L17.4623 22.6561C17.4623 22.6559 17.4623 22.6557 17.4623 22.6555ZM11.5714 12.5077L11.5728 12.5077C11.7936 12.5075 12.0099 12.4447 12.1966 12.3266C12.3832 12.2085 12.5326 12.04 12.6273 11.8404C12.6392 11.8154 13.4102 10.2033 16.0001 10.2033C16.3076 10.2033 16.6026 10.0811 16.8201 9.86367L16.6433 9.68689L16.8201 9.86367C17.0375 9.64619 17.1597 9.35123 17.1597 9.04368C17.1597 8.73612 17.0375 8.44116 16.8201 8.22368L16.6442 8.39957L16.8201 8.22368C16.6026 8.00621 16.3076 7.88403 16.0001 7.88403C11.9064 7.88403 10.5827 10.7287 10.5143 10.883L10.5143 10.883L10.5138 10.8842C10.437 11.0603 10.4051 11.2527 10.421 11.4442C10.4369 11.6356 10.5001 11.8201 10.605 11.9811C10.7098 12.142 10.853 12.2744 11.0217 12.3664C11.1904 12.4583 11.3793 12.5069 11.5714 12.5077Z" fill="#FFD166" stroke="#FFD166" stroke-width="0.5"/>
<path d="M21.5192 10.9693L21.5192 10.9692C21.5101 10.9435 21.4989 10.9135 21.4843 10.8815C21.4107 10.7176 20.0839 7.88452 15.9995 7.88452C15.6919 7.88452 15.397 8.0067 15.1795 8.22417C14.962 8.44165 14.8398 8.73661 14.8398 9.04416C14.8398 9.35172 14.962 9.64668 15.1795 9.86415C15.397 10.0816 15.6919 10.2038 15.9995 10.2038C18.3907 10.2038 19.2306 11.5764 19.3517 11.7997C19.4811 12.191 19.5164 12.5123 19.4834 12.7874C19.4501 13.0648 19.3456 13.3103 19.174 13.5457C18.8205 14.0307 18.1976 14.4567 17.3531 14.9932C17.3531 14.9932 17.353 14.9932 17.353 14.9932L17.34 15.0015C16.7604 15.3693 16.1404 15.7627 15.6679 16.2458C15.1845 16.7399 14.8398 17.3432 14.8398 18.1272V19.2746C14.8398 19.5822 14.962 19.8771 15.1795 20.0946C15.397 20.3121 15.6919 20.4342 15.9995 20.4342C16.307 20.4342 16.602 20.3121 16.8195 20.0946C17.037 19.8771 17.1591 19.5822 17.1591 19.2746V18.126C17.1591 18.1086 17.1705 18.0553 17.2459 17.9594C17.3179 17.868 17.4273 17.7641 17.5694 17.6499C17.8536 17.4215 18.2289 17.1828 18.5962 16.9496C18.5962 16.9496 18.5962 16.9496 18.5962 16.9496L18.6128 16.939C19.388 16.4468 20.406 15.8005 21.0829 14.863C21.7791 13.8988 22.1058 12.6407 21.5192 10.9693Z" fill="#FFD166" stroke="#FFD166" stroke-width="0.5"/>
</svg>
