<svg width="32" height="32" viewBox="0 0 32 32" fill="none" xmlns="http://www.w3.org/2000/svg">
<path d="M31.25 16.0002C31.2513 14.3037 30.9683 12.6191 30.4128 11.0162C30.4122 11.0137 30.4114 11.011 30.4106 11.008L30.4099 11.0056C30.3972 10.9617 30.3817 10.9188 30.3637 10.8769C29.646 8.86397 28.5133 7.02435 27.0388 5.4774C25.5623 3.92832 23.7763 2.70741 21.7969 1.89408C19.8174 1.08076 17.689 0.693229 15.5499 0.75671C13.4144 0.820087 11.316 1.33157 9.39094 2.25794C9.35898 2.27033 9.32762 2.28421 9.29695 2.29954L9.29633 2.29985C9.26806 2.31407 9.24052 2.32944 9.21374 2.34596C6.67539 3.60944 4.53897 5.55491 3.04402 7.96441C1.54692 10.3774 0.752483 13.1601 0.75 15.9998V16C0.75 24.4091 7.59092 31.25 16 31.25C24.409 31.25 31.2499 24.4092 31.25 16.0002ZM31.25 16.0002L31 16H31.25C31.25 16.0001 31.25 16.0001 31.25 16.0002ZM2.684 16H2.934C2.934 15.9569 2.93422 15.9139 2.93466 15.871C4.52088 15.7545 7.34771 15.1762 9.46087 12.686L9.46201 12.6846C10.7025 11.2013 11.4401 9.36886 11.5784 7.4505C13.5179 9.48097 15.9032 11.0372 18.549 11.994L18.5498 11.9943C22.6208 13.45 26.3191 13.1121 28.6201 12.6122C29.1235 14.4898 29.2021 16.4571 28.8486 18.3707C28.4809 20.3615 27.6557 22.2396 26.4382 23.857C25.2206 25.4744 23.6439 26.7868 21.8325 27.6908C20.0212 28.5947 18.0246 29.0655 16.0002 29.066C12.536 29.0621 9.21489 27.6842 6.76534 25.2346C4.31579 22.7851 2.93791 19.4639 2.934 15.9997L2.684 16ZM2.684 16C2.684 15.8782 2.68572 15.7567 2.68915 15.6357C4.1876 15.5604 7.11393 15.0653 9.27024 12.5242L2.684 16ZM15.9996 24.4265L15.9988 24.4265L15.9692 24.4264L15.9996 24.4265ZM15.9996 24.4265C17.0702 24.423 18.1168 24.1097 19.0131 23.5242L19.014 23.5236L15.9996 24.4265ZM15.9997 2.934C18.5498 2.93664 21.0435 3.68431 23.1743 5.08512M15.9997 2.934L23.1743 5.08512M15.9997 2.934C14.4244 2.93255 12.8629 3.21756 11.391 3.77424C12.656 5.61786 15.1643 8.46407 19.2845 9.93761C22.0411 10.9085 25.0072 11.1153 27.8685 10.5389M15.9997 2.934L27.8685 10.5389M23.1743 5.08512C25.2196 6.42973 26.8451 8.31987 27.8685 10.5389M23.1743 5.08512L27.8685 10.5389M15.9987 22.2425C16.6436 22.2399 17.2741 22.051 17.8143 21.6986C17.8143 21.6985 17.8144 21.6985 17.8144 21.6984L17.9511 21.9078L15.9987 22.2425ZM15.9987 22.2425L15.9824 22.2425C15.9824 22.2425 15.9823 22.2425 15.9823 22.2425C15.3439 22.2361 14.7207 22.0475 14.186 21.6988C13.9441 21.5398 13.6489 21.4834 13.3654 21.5419C13.0818 21.6005 12.8331 21.7693 12.6739 22.0113C12.5148 22.2533 12.4583 22.5486 12.5168 22.8322C12.5754 23.1158 12.7443 23.3646 12.9862 23.5237C13.8721 24.1071 14.9083 24.4207 15.969 24.4264L15.9987 22.2425ZM9.40871 2.52317C9.38355 2.53583 9.3593 2.54957 9.33596 2.56439L9.40871 2.52317ZM9.18115 4.85846C9.76594 7.12628 9.26391 9.54264 7.79558 11.2728L7.79557 11.2729C6.35175 12.9744 4.40414 13.4993 3.14625 13.653C3.47866 11.8474 4.18721 10.1306 5.22721 8.61471C6.26771 7.09808 7.61525 5.8186 9.18115 4.85846ZM21.052 14.908C20.836 14.908 20.6249 14.9721 20.4453 15.092C20.2657 15.212 20.1258 15.3826 20.0431 15.5821C19.9605 15.7817 19.9388 16.0012 19.981 16.213C20.0231 16.4249 20.1271 16.6194 20.2798 16.7722C20.4326 16.9249 20.6271 17.0289 20.839 17.071C21.0508 17.1132 21.2704 17.0915 21.4699 17.0089C21.6694 16.9262 21.84 16.7863 21.96 16.6067C22.08 16.4271 22.144 16.216 22.144 16C22.144 15.8566 22.1158 15.7146 22.0609 15.5821C22.006 15.4496 21.9256 15.3292 21.8242 15.2278C21.7228 15.1264 21.6024 15.046 21.4699 14.9911C21.3374 14.9363 21.1954 14.908 21.052 14.908ZM10.948 14.908C10.732 14.908 10.5209 14.9721 10.3413 15.092C10.1617 15.212 10.0218 15.3826 9.93912 15.5821C9.85647 15.7817 9.83484 16.0012 9.87698 16.213C9.91911 16.4249 10.0231 16.6195 10.1758 16.7722C10.3286 16.9249 10.5231 17.0289 10.735 17.071C10.9468 17.1132 11.1664 17.0915 11.3659 17.0089C11.5654 16.9262 11.736 16.7863 11.856 16.6067C11.976 16.4271 12.04 16.216 12.04 16C12.04 15.8566 12.0118 15.7146 11.9569 15.5821C11.902 15.4496 11.8216 15.3292 11.7202 15.2278C11.6188 15.1264 11.4984 15.046 11.3659 14.9911C11.2334 14.9362 11.0914 14.908 10.948 14.908Z" fill="#FFD166" stroke="#FFD166" stroke-width="0.5"/>
</svg>
