<svg width="51" height="51" viewBox="0 0 51 51" fill="none" xmlns="http://www.w3.org/2000/svg">
<path d="M34.832 0.985838L16.082 0.985839C7.4541 0.98584 0.457032 7.96541 0.457032 16.5718L0.457033 35.2749C0.457033 43.8812 7.4541 50.8608 16.082 50.8608L34.832 50.8608C43.46 50.8608 50.457 43.8812 50.457 35.2749L50.457 16.5718C50.457 7.96541 43.46 0.985838 34.832 0.985838ZM45.7695 35.2749C45.7695 41.2913 40.8635 46.185 34.832 46.185L16.082 46.185C10.0505 46.185 5.14453 41.2913 5.14453 35.2749L5.14453 16.5718C5.14453 10.5554 10.0518 5.66162 16.082 5.66162L34.832 5.66162C40.8635 5.66162 45.7695 10.5566 45.7695 16.5718L45.7695 35.2749Z" fill="#FFD166"/>
<path d="M25.4568 13.454C18.5538 13.454 12.9568 19.0369 12.9568 25.9228C12.9568 32.8086 18.5538 38.3915 25.4568 38.3915C32.3599 38.3915 37.9568 32.8086 37.9568 25.9228C37.9568 19.0369 32.3599 13.454 25.4568 13.454ZM25.4568 33.7157C21.1502 33.7157 17.6443 30.2186 17.6443 25.9228C17.6443 21.6232 21.1502 18.1298 25.4568 18.1298C29.7635 18.1298 33.2693 21.6232 33.2693 25.9228C33.2693 30.2186 29.7635 33.7157 25.4568 33.7157Z" fill="#FFD166"/>
<path d="M40.5596 12.5194C40.5596 13.4375 39.8137 14.1803 38.8946 14.1803C37.9754 14.1803 37.2295 13.4363 37.2295 12.5194C37.2295 11.6025 37.9754 10.8585 38.8946 10.8585C39.8137 10.8573 40.5596 11.6013 40.5596 12.5194Z" fill="#FFD166"/>
</svg>
