<svg width="28" height="31" viewBox="0 0 28 31" fill="none" xmlns="http://www.w3.org/2000/svg">
<path fill-rule="evenodd" clip-rule="evenodd" d="M8.08712 1.2598C9.04056 1.76051 9.79189 2.74941 10.3915 3.68139L10.3943 3.68583L11.1068 4.80524C11.107 4.80556 11.1072 4.80588 11.1075 4.80621C11.7191 5.76374 12.2846 6.85118 12.4115 7.96925C12.5495 9.18483 12.1582 10.348 11.0645 11.3008L10.0695 12.1678C9.93612 12.2825 9.76432 12.3969 9.65263 12.4713C9.63572 12.4826 9.62018 12.4929 9.60636 12.5022C9.46952 12.5942 9.35608 12.6742 9.25399 12.7623C9.06116 12.9287 8.94917 13.0891 8.90611 13.3017C8.86002 13.5292 8.86077 13.9792 9.22686 14.7775C9.5946 15.5794 10.3001 16.663 11.5563 18.1066C12.813 19.5522 13.7893 20.4026 14.5329 20.8788C15.2732 21.3528 15.7189 21.4164 15.9507 21.4025C16.1672 21.3896 16.3418 21.3011 16.5341 21.1332C16.636 21.0441 16.7313 20.9429 16.8424 20.8197C16.8532 20.8078 16.8652 20.7944 16.8782 20.7798C16.9679 20.6796 17.1064 20.525 17.2411 20.4077C17.2417 20.4072 17.2423 20.4067 17.2428 20.4062L18.2286 19.5435C19.3268 18.594 20.5335 18.3688 21.7184 18.6748C22.8087 18.9564 23.807 19.668 24.6701 20.4063L24.6725 20.4084L25.6742 21.2702C25.6744 21.2704 25.674 21.27 25.6742 21.2702C26.5177 21.9929 27.3945 22.8743 27.7585 23.8879C27.9539 24.4323 28.0101 25.0361 27.8217 25.6562C27.6372 26.2636 27.2487 26.7865 26.73 27.2376C26.7296 27.2379 26.7293 27.2382 26.7289 27.2385L25.8723 27.9853C25.1129 28.7591 22.8714 30.6943 19.2161 30.7337C19.2161 30.7337 19.2162 30.7337 19.2161 30.7337C14.7674 30.782 10.2965 28.0142 5.93864 22.9947C5.93844 22.9944 5.93885 22.9949 5.93864 22.9947C1.57588 17.9778 -0.544573 13.1683 0.119817 8.77233C0.665571 5.15263 2.89326 3.20751 3.76786 2.56107L4.62381 1.81315C5.14403 1.36184 5.71683 1.04982 6.34458 0.951672C6.985 0.85154 7.5751 0.99091 8.08712 1.2598ZM6.06406 3.47053C6.0636 3.47093 6.06314 3.47133 6.06269 3.47172L5.14086 4.27721L5.10154 4.30585C4.49256 4.74949 2.72183 6.24131 2.29102 9.09958C1.77001 12.5458 3.3896 16.7173 7.59551 21.5538C11.7955 26.3917 15.7041 28.576 19.1924 28.5381C22.0776 28.507 23.8076 26.9615 24.3286 26.4234L24.3609 26.39L25.2885 25.5813C25.589 25.3201 25.6875 25.1277 25.7208 25.018C25.7503 24.9207 25.7549 24.8052 25.6919 24.63C25.5392 24.2047 25.0716 23.6452 24.2457 22.9377L23.2429 22.0749C23.2425 22.0746 23.2422 22.0743 23.2418 22.074C22.4369 21.3857 21.7546 20.9519 21.1694 20.8008C20.6792 20.6742 20.2158 20.7289 19.667 21.2026C19.6662 21.2032 19.6655 21.2038 19.6647 21.2045L18.6856 22.0614L18.6824 22.0642C18.6828 22.0639 18.6821 22.0644 18.6803 22.0661C18.678 22.0683 18.6738 22.0723 18.6674 22.0786C18.6563 22.0896 18.6418 22.1047 18.6225 22.1253C18.5921 22.158 18.562 22.1915 18.5232 22.2345C18.5078 22.2517 18.491 22.2704 18.4722 22.2911C18.3522 22.4241 18.1843 22.6071 17.9786 22.7868C17.5556 23.1563 16.937 23.5432 16.0819 23.5943C15.242 23.6446 14.3377 23.3611 13.3488 22.7278C12.3632 22.0967 11.2308 21.079 9.89958 19.5476C8.56871 18.0182 7.71869 16.7562 7.231 15.6928C6.74162 14.6257 6.58703 13.6905 6.75409 12.8658C6.92417 12.0262 7.39381 11.4673 7.81945 11.1C8.0266 10.9212 8.23162 10.7807 8.38099 10.6802C8.40633 10.6632 8.42884 10.6481 8.44939 10.6343C8.49543 10.6035 8.53158 10.5793 8.56758 10.5543C8.59105 10.538 8.60826 10.5256 8.62105 10.516C8.63059 10.5089 8.63575 10.5047 8.63757 10.5032L9.62207 9.64528C10.1677 9.16995 10.2869 8.71995 10.2298 8.21691C10.1617 7.61675 9.82699 6.88029 9.25652 5.98741L9.25553 5.98585L8.54346 4.8672C7.95586 3.95414 7.46705 3.41426 7.06622 3.20376C6.90095 3.11697 6.78527 3.10517 6.68377 3.12104C6.56977 3.13886 6.36494 3.20983 6.06406 3.47053Z" fill="#FFD166"/>
</svg>
