<svg width="631" height="631" viewBox="0 0 631 631" fill="none" xmlns="http://www.w3.org/2000/svg">
<mask id="mask0_1110_3144" style="mask-type:alpha" maskUnits="userSpaceOnUse" x="0" y="0" width="631" height="631">
<circle cx="315.252" cy="315.252" r="315.252" transform="rotate(-180 315.252 315.252)" fill="#FFD166"/>
</mask>
<g mask="url(#mask0_1110_3144)">
<path d="M1240.17 -1031.12L-182.528 391.58" stroke="#E42129" stroke-width="8" stroke-miterlimit="10"/>
<path d="M1251.77 -987.051L-170.929 435.645" stroke="#E42129" stroke-width="8" stroke-miterlimit="10"/>
<path d="M1263.36 -942.986L-159.334 479.71" stroke="#E42129" stroke-width="8" stroke-miterlimit="10"/>
<path d="M1274.96 -898.921L-147.737 523.775" stroke="#E42129" stroke-width="8" stroke-miterlimit="10"/>
<path d="M1286.56 -854.854L-136.14 567.842" stroke="#E42129" stroke-width="8" stroke-miterlimit="10"/>
<path d="M1298.15 -810.789L-124.543 611.907" stroke="#E42129" stroke-width="8" stroke-miterlimit="10"/>
<path d="M1309.75 -766.724L-112.949 655.972" stroke="#E42129" stroke-width="8" stroke-miterlimit="10"/>
<path d="M1321.34 -722.659L-101.351 700.037" stroke="#E42129" stroke-width="8" stroke-miterlimit="10"/>
<path d="M1332.94 -678.594L-89.7547 744.101" stroke="#E42129" stroke-width="8" stroke-miterlimit="10"/>
<path d="M1344.54 -634.53L-78.16 788.166" stroke="#E42129" stroke-width="8" stroke-miterlimit="10"/>
<path d="M1356.13 -590.462L-66.5613 832.234" stroke="#E42129" stroke-width="8" stroke-miterlimit="10"/>
<path d="M1367.73 -546.397L-54.9637 876.298" stroke="#E42129" stroke-width="8" stroke-miterlimit="10"/>
<path d="M1379.33 -502.333L-43.3699 920.363" stroke="#E42129" stroke-width="8" stroke-miterlimit="10"/>
<path d="M1390.92 -458.268L-31.7723 964.428" stroke="#E42129" stroke-width="8" stroke-miterlimit="10"/>
<path d="M1402.52 -414.203L-20.1756 1008.49" stroke="#E42129" stroke-width="8" stroke-miterlimit="10"/>
<path d="M1414.12 -370.138L-8.58085 1052.56" stroke="#E42129" stroke-width="8" stroke-miterlimit="10"/>
<path d="M1425.71 -326.071L3.01583 1096.63" stroke="#E42129" stroke-width="8" stroke-miterlimit="10"/>
<path d="M1437.31 -282.006L14.6125 1140.69" stroke="#E42129" stroke-width="8" stroke-miterlimit="10"/>
<path d="M1448.91 -237.941L26.2092 1184.75" stroke="#E42129" stroke-width="8" stroke-miterlimit="10"/>
<path d="M1460.5 -193.876L37.8039 1228.82" stroke="#E42129" stroke-width="8" stroke-miterlimit="10"/>
<path d="M1472.09 -149.812L49.3986 1272.88" stroke="#E42129" stroke-width="8" stroke-miterlimit="10"/>
<path d="M1483.69 -105.747L60.9953 1316.95" stroke="#E42129" stroke-width="8" stroke-miterlimit="10"/>
</g>
</svg>
