<svg width="482" height="482" viewBox="0 0 482 482" fill="none" xmlns="http://www.w3.org/2000/svg">
<mask id="mask0_1124_6" style="mask-type:alpha" maskUnits="userSpaceOnUse" x="0" y="0" width="482" height="482">
<circle cx="240.693" cy="240.693" r="240.693" transform="rotate(90 240.693 240.693)" fill="#FFD166"/>
</mask>
<g mask="url(#mask0_1124_6)">
<path d="M-787.25 -465.474L298.969 620.745" stroke="white" stroke-width="6.10795" stroke-miterlimit="10"/>
<path d="M-753.607 -474.33L332.612 611.889" stroke="white" stroke-width="6.10795" stroke-miterlimit="10"/>
<path d="M-719.963 -483.183L366.256 603.036" stroke="white" stroke-width="6.10795" stroke-miterlimit="10"/>
<path d="M-686.32 -492.037L399.899 594.182" stroke="white" stroke-width="6.10795" stroke-miterlimit="10"/>
<path d="M-652.675 -500.891L433.544 585.328" stroke="white" stroke-width="6.10795" stroke-miterlimit="10"/>
<path d="M-619.032 -509.745L467.187 576.474" stroke="white" stroke-width="6.10795" stroke-miterlimit="10"/>
<path d="M-585.389 -518.597L500.83 567.622" stroke="white" stroke-width="6.10795" stroke-miterlimit="10"/>
<path d="M-551.746 -527.452L534.474 558.767" stroke="white" stroke-width="6.10795" stroke-miterlimit="10"/>
<path d="M-518.103 -536.306L568.117 549.913" stroke="white" stroke-width="6.10795" stroke-miterlimit="10"/>
<path d="M-484.459 -545.159L601.76 541.061" stroke="white" stroke-width="6.10795" stroke-miterlimit="10"/>
<path d="M-450.814 -554.014L635.405 532.205" stroke="white" stroke-width="6.10795" stroke-miterlimit="10"/>
<path d="M-417.171 -562.869L669.048 523.35" stroke="white" stroke-width="6.10795" stroke-miterlimit="10"/>
<path d="M-383.527 -571.72L702.692 514.499" stroke="white" stroke-width="6.10795" stroke-miterlimit="10"/>
<path d="M-349.885 -580.575L736.334 505.644" stroke="white" stroke-width="6.10795" stroke-miterlimit="10"/>
<path d="M-316.241 -589.429L769.978 496.79" stroke="white" stroke-width="6.10795" stroke-miterlimit="10"/>
<path d="M-282.598 -598.282L803.621 487.937" stroke="white" stroke-width="6.10795" stroke-miterlimit="10"/>
<path d="M-248.953 -607.136L837.267 479.083" stroke="white" stroke-width="6.10795" stroke-miterlimit="10"/>
<path d="M-215.31 -615.99L870.91 470.229" stroke="white" stroke-width="6.10795" stroke-miterlimit="10"/>
<path d="M-181.667 -624.844L904.553 461.376" stroke="white" stroke-width="6.10795" stroke-miterlimit="10"/>
<path d="M-148.023 -633.696L938.196 452.523" stroke="white" stroke-width="6.10795" stroke-miterlimit="10"/>
<path d="M-114.38 -642.549L971.839 443.67" stroke="white" stroke-width="6.10795" stroke-miterlimit="10"/>
<path d="M-80.7368 -651.403L1005.48 434.816" stroke="white" stroke-width="6.10795" stroke-miterlimit="10"/>
</g>
</svg>
